<mxfile host="Electron" agent="Mozilla/5.0 (Windows NT 10.0; Win64; x64) AppleWebKit/537.36 (KHTML, like Gecko) draw.io/28.2.8 Chrome/140.0.7339.240 Electron/38.4.0 Safari/537.36" version="28.2.8" pages="3">
  <diagram id="UnCF6rD-unlMhEpgZadB" name="fc1">
    <mxGraphModel dx="874" dy="682" grid="1" gridSize="10" guides="1" tooltips="1" connect="1" arrows="1" fold="1" page="1" pageScale="1" pageWidth="827" pageHeight="1169" math="0" shadow="0">
      <root>
        <mxCell id="0" />
        <mxCell id="1" parent="0" />
        <mxCell id="a9hxufNLhdT7VvHR5Jhg-1" style="edgeStyle=orthogonalEdgeStyle;rounded=0;orthogonalLoop=1;jettySize=auto;html=1;exitX=0.5;exitY=1;exitDx=0;exitDy=0;entryX=0.5;entryY=0;entryDx=0;entryDy=0;endArrow=block;endFill=1;" edge="1" parent="1" source="SEFU3VxttO12UDObY1aq-1" target="SEFU3VxttO12UDObY1aq-2">
          <mxGeometry relative="1" as="geometry" />
        </mxCell>
        <mxCell id="SEFU3VxttO12UDObY1aq-1" value="start" style="rounded=1;whiteSpace=wrap;html=1;arcSize=50;" vertex="1" parent="1">
          <mxGeometry x="230" y="140" width="100" height="40" as="geometry" />
        </mxCell>
        <mxCell id="Og06lnaTqOTZz0ZLwlTL-1" style="edgeStyle=orthogonalEdgeStyle;rounded=0;orthogonalLoop=1;jettySize=auto;html=1;exitX=0.5;exitY=1;exitDx=0;exitDy=0;entryX=0.5;entryY=0;entryDx=0;entryDy=0;endArrow=block;endFill=1;" edge="1" parent="1" source="SEFU3VxttO12UDObY1aq-2" target="SEFU3VxttO12UDObY1aq-3">
          <mxGeometry relative="1" as="geometry" />
        </mxCell>
        <mxCell id="SEFU3VxttO12UDObY1aq-2" value="initialise&lt;div&gt;variables&lt;/div&gt;" style="shape=hexagon;perimeter=hexagonPerimeter2;whiteSpace=wrap;html=1;fixedSize=1;" vertex="1" parent="1">
          <mxGeometry x="220" y="210" width="120" height="50" as="geometry" />
        </mxCell>
        <mxCell id="Og06lnaTqOTZz0ZLwlTL-2" style="edgeStyle=orthogonalEdgeStyle;shape=connector;rounded=0;orthogonalLoop=1;jettySize=auto;html=1;exitX=0.5;exitY=1;exitDx=0;exitDy=0;entryX=0.5;entryY=0;entryDx=0;entryDy=0;strokeColor=default;align=center;verticalAlign=middle;fontFamily=Helvetica;fontSize=11;fontColor=default;labelBackgroundColor=default;endArrow=block;endFill=1;" edge="1" parent="1" source="SEFU3VxttO12UDObY1aq-3" target="SEFU3VxttO12UDObY1aq-4">
          <mxGeometry relative="1" as="geometry" />
        </mxCell>
        <mxCell id="SEFU3VxttO12UDObY1aq-3" value="initialise a data&lt;div&gt;structure and store&lt;/div&gt;&lt;div&gt;the mystery fruits&lt;/div&gt;" style="shape=hexagon;perimeter=hexagonPerimeter2;whiteSpace=wrap;html=1;fixedSize=1;" vertex="1" parent="1">
          <mxGeometry x="210" y="290" width="140" height="70" as="geometry" />
        </mxCell>
        <mxCell id="Og06lnaTqOTZz0ZLwlTL-3" style="edgeStyle=orthogonalEdgeStyle;shape=connector;rounded=0;orthogonalLoop=1;jettySize=auto;html=1;exitX=0.5;exitY=1;exitDx=0;exitDy=0;entryX=0.5;entryY=0;entryDx=0;entryDy=0;strokeColor=default;align=center;verticalAlign=middle;fontFamily=Helvetica;fontSize=11;fontColor=default;labelBackgroundColor=default;endArrow=block;endFill=1;" edge="1" parent="1" source="SEFU3VxttO12UDObY1aq-4" target="SEFU3VxttO12UDObY1aq-5">
          <mxGeometry relative="1" as="geometry" />
        </mxCell>
        <mxCell id="SEFU3VxttO12UDObY1aq-4" value="initialise a data&lt;div&gt;structure to store&lt;/div&gt;&lt;div&gt;the user&#39;s fruit&lt;/div&gt;&lt;div&gt;selections&lt;/div&gt;" style="shape=hexagon;perimeter=hexagonPerimeter2;whiteSpace=wrap;html=1;fixedSize=1;" vertex="1" parent="1">
          <mxGeometry x="210" y="390" width="140" height="80" as="geometry" />
        </mxCell>
        <mxCell id="Og06lnaTqOTZz0ZLwlTL-4" style="edgeStyle=orthogonalEdgeStyle;shape=connector;rounded=0;orthogonalLoop=1;jettySize=auto;html=1;exitX=0.5;exitY=1;exitDx=0;exitDy=0;entryX=0.5;entryY=0;entryDx=0;entryDy=0;strokeColor=default;align=center;verticalAlign=middle;fontFamily=Helvetica;fontSize=11;fontColor=default;labelBackgroundColor=default;endArrow=block;endFill=1;" edge="1" parent="1" source="SEFU3VxttO12UDObY1aq-5" target="SEFU3VxttO12UDObY1aq-6">
          <mxGeometry relative="1" as="geometry" />
        </mxCell>
        <mxCell id="SEFU3VxttO12UDObY1aq-5" value="get and store&lt;div&gt;valid fruit selection&lt;/div&gt;" style="rounded=0;whiteSpace=wrap;html=1;" vertex="1" parent="1">
          <mxGeometry x="220" y="500" width="120" height="60" as="geometry" />
        </mxCell>
        <mxCell id="Og06lnaTqOTZz0ZLwlTL-5" style="edgeStyle=orthogonalEdgeStyle;shape=connector;rounded=0;orthogonalLoop=1;jettySize=auto;html=1;exitX=0.5;exitY=1;exitDx=0;exitDy=0;entryX=0.5;entryY=0;entryDx=0;entryDy=0;strokeColor=default;align=center;verticalAlign=middle;fontFamily=Helvetica;fontSize=11;fontColor=default;labelBackgroundColor=default;endArrow=block;endFill=1;" edge="1" parent="1" source="SEFU3VxttO12UDObY1aq-6" target="SEFU3VxttO12UDObY1aq-7">
          <mxGeometry relative="1" as="geometry" />
        </mxCell>
        <mxCell id="SEFU3VxttO12UDObY1aq-6" value="add 1 to counter" style="rounded=0;whiteSpace=wrap;html=1;" vertex="1" parent="1">
          <mxGeometry x="220" y="590" width="120" height="60" as="geometry" />
        </mxCell>
        <mxCell id="Og06lnaTqOTZz0ZLwlTL-6" style="edgeStyle=orthogonalEdgeStyle;shape=connector;rounded=0;orthogonalLoop=1;jettySize=auto;html=1;exitX=0.5;exitY=1;exitDx=0;exitDy=0;entryX=0.5;entryY=0;entryDx=0;entryDy=0;strokeColor=default;align=center;verticalAlign=middle;fontFamily=Helvetica;fontSize=11;fontColor=default;labelBackgroundColor=default;endArrow=block;endFill=1;" edge="1" parent="1" source="SEFU3VxttO12UDObY1aq-7" target="SEFU3VxttO12UDObY1aq-8">
          <mxGeometry relative="1" as="geometry" />
        </mxCell>
        <mxCell id="SEFU3VxttO12UDObY1aq-7" value="get and store&lt;div&gt;decision regarding&lt;/div&gt;&lt;div&gt;entering another fruit&lt;/div&gt;" style="rounded=0;whiteSpace=wrap;html=1;" vertex="1" parent="1">
          <mxGeometry x="220" y="680" width="120" height="60" as="geometry" />
        </mxCell>
        <mxCell id="Og06lnaTqOTZz0ZLwlTL-7" style="edgeStyle=orthogonalEdgeStyle;shape=connector;rounded=0;orthogonalLoop=1;jettySize=auto;html=1;exitX=0.5;exitY=1;exitDx=0;exitDy=0;entryX=0.5;entryY=0;entryDx=0;entryDy=0;strokeColor=default;align=center;verticalAlign=middle;fontFamily=Helvetica;fontSize=11;fontColor=default;labelBackgroundColor=default;endArrow=block;endFill=1;" edge="1" parent="1" source="SEFU3VxttO12UDObY1aq-8" target="SEFU3VxttO12UDObY1aq-9">
          <mxGeometry relative="1" as="geometry" />
        </mxCell>
        <mxCell id="Og06lnaTqOTZz0ZLwlTL-8" style="edgeStyle=orthogonalEdgeStyle;shape=connector;rounded=0;orthogonalLoop=1;jettySize=auto;html=1;exitX=1;exitY=0.5;exitDx=0;exitDy=0;entryX=1;entryY=0.5;entryDx=0;entryDy=0;strokeColor=default;align=center;verticalAlign=middle;fontFamily=Helvetica;fontSize=11;fontColor=default;labelBackgroundColor=default;endArrow=block;endFill=1;startArrow=none;startFill=0;" edge="1" parent="1" source="SEFU3VxttO12UDObY1aq-8" target="SEFU3VxttO12UDObY1aq-5">
          <mxGeometry relative="1" as="geometry">
            <Array as="points">
              <mxPoint x="380" y="820" />
              <mxPoint x="380" y="530" />
            </Array>
          </mxGeometry>
        </mxCell>
        <mxCell id="SEFU3VxttO12UDObY1aq-8" value="decision = yes&lt;div&gt;AND counter &amp;lt; 6&lt;/div&gt;" style="rhombus;whiteSpace=wrap;html=1;" vertex="1" parent="1">
          <mxGeometry x="210" y="770" width="140" height="100" as="geometry" />
        </mxCell>
        <mxCell id="SEFU3VxttO12UDObY1aq-9" value="" style="ellipse;whiteSpace=wrap;html=1;aspect=fixed;" vertex="1" parent="1">
          <mxGeometry x="270" y="900" width="20" height="20" as="geometry" />
        </mxCell>
        <mxCell id="Og06lnaTqOTZz0ZLwlTL-11" style="edgeStyle=orthogonalEdgeStyle;shape=connector;rounded=0;orthogonalLoop=1;jettySize=auto;html=1;exitX=0.5;exitY=1;exitDx=0;exitDy=0;entryX=0.5;entryY=0;entryDx=0;entryDy=0;strokeColor=default;align=center;verticalAlign=middle;fontFamily=Helvetica;fontSize=11;fontColor=default;labelBackgroundColor=default;endArrow=block;endFill=1;" edge="1" parent="1" source="SEFU3VxttO12UDObY1aq-10" target="SEFU3VxttO12UDObY1aq-11">
          <mxGeometry relative="1" as="geometry" />
        </mxCell>
        <mxCell id="SEFU3VxttO12UDObY1aq-10" value="" style="ellipse;whiteSpace=wrap;html=1;aspect=fixed;" vertex="1" parent="1">
          <mxGeometry x="510" y="150" width="20" height="20" as="geometry" />
        </mxCell>
        <mxCell id="Og06lnaTqOTZz0ZLwlTL-12" style="edgeStyle=orthogonalEdgeStyle;shape=connector;rounded=0;orthogonalLoop=1;jettySize=auto;html=1;exitX=0.5;exitY=1;exitDx=0;exitDy=0;entryX=0.5;entryY=0;entryDx=0;entryDy=0;strokeColor=default;align=center;verticalAlign=middle;fontFamily=Helvetica;fontSize=11;fontColor=default;labelBackgroundColor=default;endArrow=block;endFill=1;" edge="1" parent="1" source="SEFU3VxttO12UDObY1aq-11" target="SEFU3VxttO12UDObY1aq-12">
          <mxGeometry relative="1" as="geometry" />
        </mxCell>
        <mxCell id="SEFU3VxttO12UDObY1aq-11" value="generate a&lt;div&gt;random number&lt;/div&gt;&lt;div&gt;between 0 and 9&lt;/div&gt;" style="shape=process;whiteSpace=wrap;html=1;backgroundOutline=1;" vertex="1" parent="1">
          <mxGeometry x="460" y="200" width="120" height="60" as="geometry" />
        </mxCell>
        <mxCell id="Og06lnaTqOTZz0ZLwlTL-13" style="edgeStyle=orthogonalEdgeStyle;shape=connector;rounded=0;orthogonalLoop=1;jettySize=auto;html=1;exitX=0.5;exitY=1;exitDx=0;exitDy=0;entryX=0.5;entryY=0;entryDx=0;entryDy=0;strokeColor=default;align=center;verticalAlign=middle;fontFamily=Helvetica;fontSize=11;fontColor=default;labelBackgroundColor=default;endArrow=block;endFill=1;" edge="1" parent="1" source="SEFU3VxttO12UDObY1aq-12" target="SEFU3VxttO12UDObY1aq-13">
          <mxGeometry relative="1" as="geometry" />
        </mxCell>
        <mxCell id="SEFU3VxttO12UDObY1aq-12" value="display &quot;The fruits&lt;div&gt;you entered were.&quot;&lt;/div&gt;" style="shape=parallelogram;perimeter=parallelogramPerimeter;whiteSpace=wrap;html=1;fixedSize=1;" vertex="1" parent="1">
          <mxGeometry x="440" y="290" width="160" height="60" as="geometry" />
        </mxCell>
        <mxCell id="Og06lnaTqOTZz0ZLwlTL-14" style="edgeStyle=orthogonalEdgeStyle;shape=connector;rounded=0;orthogonalLoop=1;jettySize=auto;html=1;exitX=0.5;exitY=1;exitDx=0;exitDy=0;entryX=0.5;entryY=0;entryDx=0;entryDy=0;strokeColor=default;align=center;verticalAlign=middle;fontFamily=Helvetica;fontSize=11;fontColor=default;labelBackgroundColor=default;endArrow=block;endFill=1;" edge="1" parent="1" source="SEFU3VxttO12UDObY1aq-13" target="SEFU3VxttO12UDObY1aq-14">
          <mxGeometry relative="1" as="geometry" />
        </mxCell>
        <mxCell id="SEFU3VxttO12UDObY1aq-13" value="display all uers&lt;div&gt;entered fruit names&lt;/div&gt;" style="shape=parallelogram;perimeter=parallelogramPerimeter;whiteSpace=wrap;html=1;fixedSize=1;" vertex="1" parent="1">
          <mxGeometry x="440" y="380" width="160" height="60" as="geometry" />
        </mxCell>
        <mxCell id="Og06lnaTqOTZz0ZLwlTL-15" style="edgeStyle=orthogonalEdgeStyle;shape=connector;rounded=0;orthogonalLoop=1;jettySize=auto;html=1;exitX=0.5;exitY=1;exitDx=0;exitDy=0;entryX=0.5;entryY=0;entryDx=0;entryDy=0;strokeColor=default;align=center;verticalAlign=middle;fontFamily=Helvetica;fontSize=11;fontColor=default;labelBackgroundColor=default;endArrow=block;endFill=1;" edge="1" parent="1" source="SEFU3VxttO12UDObY1aq-14" target="SEFU3VxttO12UDObY1aq-15">
          <mxGeometry relative="1" as="geometry" />
        </mxCell>
        <mxCell id="SEFU3VxttO12UDObY1aq-14" value="display &quot;The&lt;div&gt;mystery fruit is.&quot;&lt;/div&gt;" style="shape=parallelogram;perimeter=parallelogramPerimeter;whiteSpace=wrap;html=1;fixedSize=1;" vertex="1" parent="1">
          <mxGeometry x="440" y="470" width="160" height="60" as="geometry" />
        </mxCell>
        <mxCell id="Og06lnaTqOTZz0ZLwlTL-16" style="edgeStyle=orthogonalEdgeStyle;shape=connector;rounded=0;orthogonalLoop=1;jettySize=auto;html=1;exitX=0.5;exitY=1;exitDx=0;exitDy=0;entryX=0.5;entryY=0;entryDx=0;entryDy=0;strokeColor=default;align=center;verticalAlign=middle;fontFamily=Helvetica;fontSize=11;fontColor=default;labelBackgroundColor=default;endArrow=block;endFill=1;" edge="1" parent="1" source="SEFU3VxttO12UDObY1aq-15" target="SEFU3VxttO12UDObY1aq-16">
          <mxGeometry relative="1" as="geometry" />
        </mxCell>
        <mxCell id="SEFU3VxttO12UDObY1aq-15" value="display the randomly selected mystery fruit" style="shape=parallelogram;perimeter=parallelogramPerimeter;whiteSpace=wrap;html=1;fixedSize=1;" vertex="1" parent="1">
          <mxGeometry x="440" y="560" width="160" height="60" as="geometry" />
        </mxCell>
        <mxCell id="SEFU3VxttO12UDObY1aq-16" value="" style="ellipse;whiteSpace=wrap;html=1;aspect=fixed;" vertex="1" parent="1">
          <mxGeometry x="510" y="650" width="20" height="20" as="geometry" />
        </mxCell>
        <mxCell id="Og06lnaTqOTZz0ZLwlTL-9" value="Yes" style="text;html=1;whiteSpace=wrap;strokeColor=none;fillColor=none;align=center;verticalAlign=middle;rounded=0;fontFamily=Helvetica;fontSize=11;fontColor=default;labelBackgroundColor=default;" vertex="1" parent="1">
          <mxGeometry x="340" y="800" width="40" height="20" as="geometry" />
        </mxCell>
      </root>
    </mxGraphModel>
  </diagram>
  <diagram id="EeAadzVx2FTEmuIalZis" name="fc2">
    <mxGraphModel dx="1589" dy="1240" grid="1" gridSize="10" guides="1" tooltips="1" connect="1" arrows="1" fold="1" page="1" pageScale="1" pageWidth="827" pageHeight="1169" math="0" shadow="0">
      <root>
        <mxCell id="0" />
        <mxCell id="1" parent="0" />
        <mxCell id="REjOa7g4gELa2p3Js2_3-1" style="edgeStyle=orthogonalEdgeStyle;shape=connector;rounded=0;orthogonalLoop=1;jettySize=auto;html=1;exitX=0.5;exitY=1;exitDx=0;exitDy=0;entryX=0.5;entryY=0;entryDx=0;entryDy=0;strokeColor=default;align=center;verticalAlign=middle;fontFamily=Helvetica;fontSize=11;fontColor=default;labelBackgroundColor=default;endArrow=block;endFill=1;" edge="1" parent="1" source="zXU6aaeC9Ms-t5kNJ7PS-1" target="zXU6aaeC9Ms-t5kNJ7PS-2">
          <mxGeometry relative="1" as="geometry" />
        </mxCell>
        <mxCell id="zXU6aaeC9Ms-t5kNJ7PS-1" value="" style="ellipse;whiteSpace=wrap;html=1;aspect=fixed;" vertex="1" parent="1">
          <mxGeometry x="270" y="190" width="20" height="20" as="geometry" />
        </mxCell>
        <mxCell id="REjOa7g4gELa2p3Js2_3-2" style="edgeStyle=orthogonalEdgeStyle;shape=connector;rounded=0;orthogonalLoop=1;jettySize=auto;html=1;exitX=0.5;exitY=1;exitDx=0;exitDy=0;entryX=0.5;entryY=0;entryDx=0;entryDy=0;strokeColor=default;align=center;verticalAlign=middle;fontFamily=Helvetica;fontSize=11;fontColor=default;labelBackgroundColor=default;endArrow=block;endFill=1;" edge="1" parent="1" source="zXU6aaeC9Ms-t5kNJ7PS-2" target="zXU6aaeC9Ms-t5kNJ7PS-3">
          <mxGeometry relative="1" as="geometry" />
        </mxCell>
        <mxCell id="zXU6aaeC9Ms-t5kNJ7PS-2" value="add 1 to counter" style="rounded=0;whiteSpace=wrap;html=1;" vertex="1" parent="1">
          <mxGeometry x="220" y="240" width="120" height="60" as="geometry" />
        </mxCell>
        <mxCell id="REjOa7g4gELa2p3Js2_3-3" style="edgeStyle=orthogonalEdgeStyle;shape=connector;rounded=0;orthogonalLoop=1;jettySize=auto;html=1;exitX=0.5;exitY=1;exitDx=0;exitDy=0;entryX=0.5;entryY=0;entryDx=0;entryDy=0;strokeColor=default;align=center;verticalAlign=middle;fontFamily=Helvetica;fontSize=11;fontColor=default;labelBackgroundColor=default;endArrow=block;endFill=1;" edge="1" parent="1" source="zXU6aaeC9Ms-t5kNJ7PS-3" target="dDtnWfXWpHY-2bnRMbuC-1">
          <mxGeometry relative="1" as="geometry" />
        </mxCell>
        <mxCell id="REjOa7g4gELa2p3Js2_3-6" style="edgeStyle=orthogonalEdgeStyle;shape=connector;rounded=0;orthogonalLoop=1;jettySize=auto;html=1;exitX=1;exitY=0.5;exitDx=0;exitDy=0;entryX=0;entryY=0.5;entryDx=0;entryDy=0;strokeColor=default;align=center;verticalAlign=middle;fontFamily=Helvetica;fontSize=11;fontColor=default;labelBackgroundColor=default;endArrow=block;endFill=1;" edge="1" parent="1" source="zXU6aaeC9Ms-t5kNJ7PS-3" target="zXU6aaeC9Ms-t5kNJ7PS-6">
          <mxGeometry relative="1" as="geometry" />
        </mxCell>
        <mxCell id="zXU6aaeC9Ms-t5kNJ7PS-3" value="if counter &amp;lt; 3" style="rhombus;whiteSpace=wrap;html=1;" vertex="1" parent="1">
          <mxGeometry x="210" y="330" width="140" height="80" as="geometry" />
        </mxCell>
        <mxCell id="REjOa7g4gELa2p3Js2_3-5" style="edgeStyle=orthogonalEdgeStyle;shape=connector;rounded=0;orthogonalLoop=1;jettySize=auto;html=1;exitX=0.5;exitY=1;exitDx=0;exitDy=0;entryX=0.5;entryY=0;entryDx=0;entryDy=0;strokeColor=default;align=center;verticalAlign=middle;fontFamily=Helvetica;fontSize=11;fontColor=default;labelBackgroundColor=default;endArrow=block;endFill=1;" edge="1" parent="1" source="zXU6aaeC9Ms-t5kNJ7PS-5" target="zXU6aaeC9Ms-t5kNJ7PS-8">
          <mxGeometry relative="1" as="geometry" />
        </mxCell>
        <mxCell id="zXU6aaeC9Ms-t5kNJ7PS-5" value="display fruit&lt;div&gt;&lt;span style=&quot;background-color: transparent; color: light-dark(rgb(0, 0, 0), rgb(255, 255, 255));&quot;&gt;juice&amp;nbsp;&lt;/span&gt;&lt;span style=&quot;background-color: transparent; color: light-dark(rgb(0, 0, 0), rgb(255, 255, 255));&quot;&gt;message&lt;/span&gt;&lt;/div&gt;" style="shape=parallelogram;perimeter=parallelogramPerimeter;whiteSpace=wrap;html=1;fixedSize=1;" vertex="1" parent="1">
          <mxGeometry x="220" y="550" width="120" height="60" as="geometry" />
        </mxCell>
        <mxCell id="REjOa7g4gELa2p3Js2_3-8" style="edgeStyle=orthogonalEdgeStyle;shape=connector;rounded=0;orthogonalLoop=1;jettySize=auto;html=1;exitX=0.5;exitY=1;exitDx=0;exitDy=0;strokeColor=default;align=center;verticalAlign=middle;fontFamily=Helvetica;fontSize=11;fontColor=default;labelBackgroundColor=default;endArrow=block;endFill=1;" edge="1" parent="1" source="zXU6aaeC9Ms-t5kNJ7PS-6">
          <mxGeometry relative="1" as="geometry">
            <mxPoint x="280" y="650" as="targetPoint" />
            <Array as="points">
              <mxPoint x="520" y="650" />
            </Array>
          </mxGeometry>
        </mxCell>
        <mxCell id="zXU6aaeC9Ms-t5kNJ7PS-6" value="display&lt;div&gt;&lt;span style=&quot;background-color: transparent; color: light-dark(rgb(0, 0, 0), rgb(255, 255, 255));&quot;&gt;milkshake&lt;/span&gt;&lt;/div&gt;&lt;div&gt;&lt;span style=&quot;background-color: transparent; color: light-dark(rgb(0, 0, 0), rgb(255, 255, 255));&quot;&gt;message&lt;/span&gt;&lt;/div&gt;" style="shape=parallelogram;perimeter=parallelogramPerimeter;whiteSpace=wrap;html=1;fixedSize=1;" vertex="1" parent="1">
          <mxGeometry x="460" y="340" width="120" height="60" as="geometry" />
        </mxCell>
        <mxCell id="REjOa7g4gELa2p3Js2_3-9" style="edgeStyle=orthogonalEdgeStyle;shape=connector;rounded=0;orthogonalLoop=1;jettySize=auto;html=1;exitX=0.5;exitY=1;exitDx=0;exitDy=0;strokeColor=default;align=center;verticalAlign=middle;fontFamily=Helvetica;fontSize=11;fontColor=default;labelBackgroundColor=default;endArrow=block;endFill=1;" edge="1" parent="1" source="zXU6aaeC9Ms-t5kNJ7PS-7">
          <mxGeometry relative="1" as="geometry">
            <mxPoint x="280" y="630" as="targetPoint" />
            <Array as="points">
              <mxPoint x="440" y="630" />
            </Array>
          </mxGeometry>
        </mxCell>
        <mxCell id="zXU6aaeC9Ms-t5kNJ7PS-7" value="display&lt;div&gt;&lt;span style=&quot;background-color: transparent; color: light-dark(rgb(0, 0, 0), rgb(255, 255, 255));&quot;&gt;smoothie&lt;/span&gt;&lt;/div&gt;&lt;div&gt;&lt;span style=&quot;background-color: transparent; color: light-dark(rgb(0, 0, 0), rgb(255, 255, 255));&quot;&gt;message&lt;/span&gt;&lt;/div&gt;" style="shape=parallelogram;perimeter=parallelogramPerimeter;whiteSpace=wrap;html=1;fixedSize=1;" vertex="1" parent="1">
          <mxGeometry x="380" y="450" width="120" height="60" as="geometry" />
        </mxCell>
        <mxCell id="zXU6aaeC9Ms-t5kNJ7PS-8" value="end" style="rounded=1;whiteSpace=wrap;html=1;arcSize=50;" vertex="1" parent="1">
          <mxGeometry x="230" y="670" width="100" height="40" as="geometry" />
        </mxCell>
        <mxCell id="REjOa7g4gELa2p3Js2_3-4" style="edgeStyle=orthogonalEdgeStyle;shape=connector;rounded=0;orthogonalLoop=1;jettySize=auto;html=1;exitX=0.5;exitY=1;exitDx=0;exitDy=0;entryX=0.5;entryY=0;entryDx=0;entryDy=0;strokeColor=default;align=center;verticalAlign=middle;fontFamily=Helvetica;fontSize=11;fontColor=default;labelBackgroundColor=default;endArrow=block;endFill=1;" edge="1" parent="1" source="dDtnWfXWpHY-2bnRMbuC-1" target="zXU6aaeC9Ms-t5kNJ7PS-5">
          <mxGeometry relative="1" as="geometry" />
        </mxCell>
        <mxCell id="REjOa7g4gELa2p3Js2_3-7" style="edgeStyle=orthogonalEdgeStyle;shape=connector;rounded=0;orthogonalLoop=1;jettySize=auto;html=1;exitX=1;exitY=0.5;exitDx=0;exitDy=0;entryX=0;entryY=0.5;entryDx=0;entryDy=0;strokeColor=default;align=center;verticalAlign=middle;fontFamily=Helvetica;fontSize=11;fontColor=default;labelBackgroundColor=default;endArrow=block;endFill=1;" edge="1" parent="1" source="dDtnWfXWpHY-2bnRMbuC-1" target="zXU6aaeC9Ms-t5kNJ7PS-7">
          <mxGeometry relative="1" as="geometry" />
        </mxCell>
        <mxCell id="dDtnWfXWpHY-2bnRMbuC-1" value="if counter = 3 or 4" style="rhombus;whiteSpace=wrap;html=1;" vertex="1" parent="1">
          <mxGeometry x="210" y="440" width="140" height="80" as="geometry" />
        </mxCell>
        <mxCell id="KGDCByNBaSQ-1SMqYNfB-1" value="Yes" style="text;html=1;whiteSpace=wrap;strokeColor=none;fillColor=none;align=center;verticalAlign=middle;rounded=0;fontFamily=Helvetica;fontSize=11;fontColor=default;labelBackgroundColor=default;" vertex="1" parent="1">
          <mxGeometry x="350" y="350" width="40" height="20" as="geometry" />
        </mxCell>
        <mxCell id="KGDCByNBaSQ-1SMqYNfB-4" value="Yes" style="text;html=1;whiteSpace=wrap;strokeColor=none;fillColor=none;align=center;verticalAlign=middle;rounded=0;fontFamily=Helvetica;fontSize=11;fontColor=default;labelBackgroundColor=default;" vertex="1" parent="1">
          <mxGeometry x="350" y="460" width="40" height="20" as="geometry" />
        </mxCell>
        <mxCell id="KGDCByNBaSQ-1SMqYNfB-6" value="No" style="text;html=1;whiteSpace=wrap;strokeColor=none;fillColor=none;align=center;verticalAlign=middle;rounded=0;fontFamily=Helvetica;fontSize=11;fontColor=default;labelBackgroundColor=default;" vertex="1" parent="1">
          <mxGeometry x="280" y="520" width="40" height="20" as="geometry" />
        </mxCell>
      </root>
    </mxGraphModel>
  </diagram>
  <diagram id="rixkyah6m9kLtBdBK0iV" name="tt">
    <mxGraphModel dx="874" dy="682" grid="1" gridSize="10" guides="1" tooltips="1" connect="1" arrows="1" fold="1" page="1" pageScale="1" pageWidth="1169" pageHeight="827" math="0" shadow="0">
      <root>
        <mxCell id="0" />
        <mxCell id="1" parent="0" />
        <mxCell id="edKIq7crGZylfQP5pC1n-1" value="Normal" style="rounded=0;whiteSpace=wrap;html=1;align=left;verticalAlign=top;spacing=2;spacingLeft=4;spacingRight=4;strokeColor=default;" parent="1" vertex="1">
          <mxGeometry x="280" y="240" width="100" height="220" as="geometry" />
        </mxCell>
        <mxCell id="edKIq7crGZylfQP5pC1n-2" value="Selection 1:&lt;div&gt;&lt;b&gt;lemon&lt;/b&gt;&lt;/div&gt;&lt;div&gt;&lt;br&gt;&lt;/div&gt;&lt;div&gt;Selection 2:&lt;div&gt;&lt;b&gt;pear&lt;/b&gt;&lt;/div&gt;&lt;/div&gt;&lt;div&gt;&lt;br&gt;&lt;/div&gt;&lt;div&gt;Selection 3:&lt;div&gt;&lt;b&gt;peach&lt;/b&gt;&lt;/div&gt;&lt;/div&gt;&lt;div&gt;&lt;br&gt;&lt;/div&gt;&lt;div&gt;Selection 4:&lt;div&gt;&lt;b&gt;orange&lt;/b&gt;&lt;/div&gt;&lt;/div&gt;" style="rounded=0;whiteSpace=wrap;html=1;align=left;verticalAlign=top;spacing=2;spacingLeft=4;spacingRight=4;strokeColor=default;" parent="1" vertex="1">
          <mxGeometry x="370" y="240" width="120" height="220" as="geometry" />
        </mxCell>
        <mxCell id="edKIq7crGZylfQP5pC1n-3" value="" style="rounded=0;whiteSpace=wrap;html=1;align=left;verticalAlign=top;spacing=2;spacingLeft=4;spacingRight=4;strokeColor=default;" parent="1" vertex="1">
          <mxGeometry x="490" y="240" width="280" height="220" as="geometry" />
        </mxCell>
        <mxCell id="edKIq7crGZylfQP5pC1n-15" value="&lt;div&gt;Type of test&lt;/div&gt;" style="rounded=0;whiteSpace=wrap;html=1;align=left;verticalAlign=middle;spacing=2;spacingLeft=4;spacingRight=4;strokeColor=default;fillColor=#d4d4d4;fontStyle=1" parent="1" vertex="1">
          <mxGeometry x="280" y="200" width="100" height="40" as="geometry" />
        </mxCell>
        <mxCell id="edKIq7crGZylfQP5pC1n-16" value="User input" style="rounded=0;whiteSpace=wrap;html=1;align=left;verticalAlign=middle;spacing=2;spacingLeft=4;spacingRight=4;strokeColor=default;fillColor=#d4d4d4;fontStyle=1" parent="1" vertex="1">
          <mxGeometry x="370" y="200" width="120" height="40" as="geometry" />
        </mxCell>
        <mxCell id="edKIq7crGZylfQP5pC1n-17" value="&lt;div&gt;Expected output&lt;/div&gt;" style="rounded=0;whiteSpace=wrap;html=1;align=left;verticalAlign=middle;spacing=2;spacingLeft=4;spacingRight=4;strokeColor=default;fillColor=#d4d4d4;fontStyle=1" parent="1" vertex="1">
          <mxGeometry x="490" y="200" width="280" height="40" as="geometry" />
        </mxCell>
      </root>
    </mxGraphModel>
  </diagram>
</mxfile>
